<svg width="48" height="48" viewBox="0 0 48 48" fill="none" xmlns="http://www.w3.org/2000/svg">
<rect width="48" height="48" rx="4" fill="#EDD8FF" fill-opacity="0.5"/>
<path d="M30 16.4799C28.4087 14.8886 26.2504 13.9946 24 13.9946C21.7496 13.9946 19.5913 14.8886 18 16.4799C16.4087 18.0712 15.5147 20.2295 15.5147 22.4799C15.5147 24.7303 16.4087 26.8886 18 28.4799L23.27 33.7599C23.363 33.8536 23.4736 33.928 23.5954 33.9788C23.7173 34.0296 23.848 34.0557 23.98 34.0557C24.112 34.0557 24.2427 34.0296 24.3646 33.9788C24.4864 33.928 24.597 33.8536 24.69 33.7599L30 28.4299C31.5846 26.8452 32.4749 24.696 32.4749 22.4549C32.4749 20.2139 31.5846 18.0646 30 16.4799ZM28.57 26.9999L24 31.5899L19.43 26.9999C18.5271 26.0962 17.9125 24.9452 17.6637 23.6922C17.4149 22.4392 17.5432 21.1407 18.0323 19.9606C18.5214 18.7805 19.3494 17.772 20.4116 17.0624C21.4738 16.3528 22.7226 15.9741 24 15.9741C25.2774 15.9741 26.5261 16.3528 27.5884 17.0624C28.6506 17.772 29.4786 18.7805 29.9677 19.9606C30.4568 21.1407 30.5851 22.4392 30.3363 23.6922C30.0875 24.9452 29.4728 26.0962 28.57 26.9999ZM21 19.4099C20.1927 20.2197 19.7394 21.3165 19.7394 22.4599C19.7394 23.6033 20.1927 24.7001 21 25.5099C21.5998 26.1107 22.3636 26.521 23.1956 26.6893C24.0277 26.8576 24.8909 26.7765 25.6771 26.4561C26.4632 26.1356 27.1372 25.5902 27.6145 24.8882C28.0918 24.1861 28.3511 23.3588 28.36 22.5099C28.3645 21.9431 28.2553 21.3812 28.0389 20.8573C27.8225 20.3334 27.5032 19.8583 27.1 19.4599C26.7037 19.0545 26.2311 18.7314 25.7094 18.5094C25.1878 18.2873 24.6273 18.1706 24.0604 18.1659C23.4935 18.1613 22.9312 18.2688 22.406 18.4823C21.8807 18.6958 21.4029 19.011 21 19.4099ZM25.69 24.0899C25.311 24.4747 24.8102 24.7158 24.2731 24.7722C23.736 24.8285 23.1961 24.6966 22.7455 24.3988C22.2949 24.1011 21.9618 23.6562 21.803 23.14C21.6442 22.6238 21.6696 22.0685 21.8749 21.5691C22.0803 21.0696 22.4527 20.6569 22.9286 20.4016C23.4045 20.1464 23.9542 20.0643 24.4839 20.1695C25.0136 20.2747 25.4903 20.5607 25.8325 20.9784C26.1747 21.3962 26.3612 21.9199 26.36 22.4599C26.3454 23.0772 26.0865 23.6634 25.64 24.0899H25.69Z" fill="#A53DFF"/>
</svg>
