<svg width="72" height="72" viewBox="0 0 72 72" fill="none" xmlns="http://www.w3.org/2000/svg">
<rect width="72" height="72" rx="6" fill="#EDD8FF" fill-opacity="0.5"/>
<path d="M49.3333 29.6534C49.3343 29.478 49.3007 29.304 49.2343 29.1416C49.168 28.9791 49.0702 28.8314 48.9466 28.7068L43.2933 23.0534C43.1687 22.9299 43.021 22.8321 42.8585 22.7657C42.6961 22.6994 42.5221 22.6658 42.3466 22.6668C42.1712 22.6658 41.9972 22.6994 41.8348 22.7657C41.6723 22.8321 41.5246 22.9299 41.4 23.0534L37.6266 26.8268L23.0533 41.4001C22.9297 41.5247 22.832 41.6724 22.7656 41.8349C22.6993 41.9973 22.6656 42.1713 22.6666 42.3468V48.0001C22.6666 48.3537 22.8071 48.6929 23.0572 48.9429C23.3072 49.193 23.6464 49.3334 24 49.3334H29.6533C29.8399 49.3436 30.0265 49.3144 30.2011 49.2478C30.3756 49.1812 30.5343 49.0786 30.6666 48.9468L45.16 34.3734L48.9466 30.6668C49.0683 30.5375 49.1675 30.3888 49.24 30.2268C49.2528 30.1205 49.2528 30.013 49.24 29.9068C49.2462 29.8447 49.2462 29.7822 49.24 29.7201L49.3333 29.6534ZM29.1066 46.6668H25.3333V42.8934L38.5733 29.6534L42.3466 33.4268L29.1066 46.6668ZM44.2266 31.5468L40.4533 27.7734L42.3466 25.8934L46.1066 29.6534L44.2266 31.5468Z" fill="#A53DFF"/>
</svg>
