<svg width="72" height="72" viewBox="0 0 72 72" fill="none" xmlns="http://www.w3.org/2000/svg">
<rect width="72" height="72" rx="6" fill="#EDD8FF" fill-opacity="0.5"/>
<path d="M48 38.6666H46.6666V29.3333C46.6666 28.2724 46.2452 27.255 45.4951 26.5048C44.7449 25.7547 43.7275 25.3333 42.6666 25.3333H29.3333C28.2724 25.3333 27.255 25.7547 26.5049 26.5048C25.7547 27.255 25.3333 28.2724 25.3333 29.3333V38.6666H24C23.6463 38.6666 23.3072 38.8071 23.0572 39.0571C22.8071 39.3072 22.6666 39.6463 22.6666 39.9999V42.6666C22.6666 43.7275 23.0881 44.7449 23.8382 45.495C24.5883 46.2452 25.6058 46.6666 26.6666 46.6666H45.3333C46.3942 46.6666 47.4116 46.2452 48.1617 45.495C48.9119 44.7449 49.3333 43.7275 49.3333 42.6666V39.9999C49.3333 39.6463 49.1928 39.3072 48.9428 39.0571C48.6927 38.8071 48.3536 38.6666 48 38.6666ZM28 29.3333C28 28.9796 28.1404 28.6405 28.3905 28.3904C28.6405 28.1404 28.9797 27.9999 29.3333 27.9999H42.6666C43.0202 27.9999 43.3594 28.1404 43.6094 28.3904C43.8595 28.6405 44 28.9796 44 29.3333V38.6666H28V29.3333ZM46.6666 42.6666C46.6666 43.0202 46.5261 43.3593 46.2761 43.6094C46.0261 43.8594 45.6869 43.9999 45.3333 43.9999H26.6666C26.313 43.9999 25.9739 43.8594 25.7238 43.6094C25.4738 43.3593 25.3333 43.0202 25.3333 42.6666V41.3333H46.6666V42.6666Z" fill="#A53DFF"/>
</svg>
