<svg width="392" height="200" viewBox="0 0 392 200" fill="none" xmlns="http://www.w3.org/2000/svg">
<g filter="url(#filter0_d_1_263)">
<rect x="64" y="52" width="264" height="72" rx="4" fill="white" shape-rendering="crispEdges"/>
<rect x="76" y="64" width="48" height="48" rx="4" fill="white"/>
<path d="M104.487 78.25H101.43C99.616 78.25 97.5985 79.0278 97.5985 81.7086C97.6073 82.6427 97.5985 83.5373 97.5985 84.5441H95.5V87.9487H97.6634V97.75H101.639V87.884H104.263L104.5 84.5346H101.57C101.57 84.5346 101.577 83.0446 101.57 82.6119C101.57 81.5525 102.651 81.6131 102.716 81.6131C103.231 81.6131 104.231 81.6147 104.488 81.6131V78.25H104.487Z" fill="#A53DFF"/>
<rect x="124" y="64" width="48" height="48" rx="4" fill="white"/>
<g clip-path="url(#clip0_1_263)">
<path d="M139 88C139 86.368 139.402 84.862 140.206 83.482C141.01 82.102 142.102 81.01 143.482 80.206C144.862 79.402 146.368 79 148 79C149.632 79 151.138 79.402 152.518 80.206C153.898 81.01 154.99 82.102 155.794 83.482C156.598 84.862 157 86.368 157 88C157 89.632 156.598 91.138 155.794 92.518C154.99 93.898 153.898 94.99 152.518 95.794C151.138 96.598 149.632 97 148 97C146.368 97 144.862 96.598 143.482 95.794C142.102 94.99 141.01 93.898 140.206 92.518C139.402 91.138 139 89.632 139 88ZM140.494 88C140.494 89.872 141.124 91.522 142.384 92.95C142.96 91.822 143.872 90.748 145.12 89.728C146.368 88.708 147.586 88.066 148.774 87.802C148.594 87.382 148.42 87.004 148.252 86.668C146.188 87.328 143.956 87.658 141.556 87.658C141.088 87.658 140.74 87.652 140.512 87.64C140.512 87.688 140.509 87.748 140.503 87.82C140.497 87.892 140.494 87.952 140.494 88ZM140.728 86.146C140.992 86.17 141.382 86.182 141.898 86.182C143.902 86.182 145.804 85.912 147.604 85.372C146.692 83.752 145.69 82.402 144.598 81.322C143.65 81.802 142.837 82.468 142.159 83.32C141.481 84.172 141.004 85.114 140.728 86.146ZM143.41 93.922C144.766 94.978 146.296 95.506 148 95.506C148.888 95.506 149.77 95.338 150.646 95.002C150.406 92.95 149.938 90.964 149.242 89.044C148.138 89.284 147.025 89.89 145.903 90.862C144.781 91.834 143.95 92.854 143.41 93.922ZM146.164 80.746C147.22 81.838 148.198 83.2 149.098 84.832C150.73 84.148 151.96 83.278 152.788 82.222C151.396 81.07 149.8 80.494 148 80.494C147.388 80.494 146.776 80.578 146.164 80.746ZM149.746 86.11C149.926 86.494 150.13 86.98 150.358 87.568C151.246 87.484 152.212 87.442 153.256 87.442C154 87.442 154.738 87.46 155.47 87.496C155.374 85.864 154.786 84.412 153.706 83.14C152.926 84.304 151.606 85.294 149.746 86.11ZM150.808 88.828C151.42 90.604 151.834 92.428 152.05 94.3C152.998 93.688 153.772 92.902 154.372 91.942C154.972 90.982 155.332 89.944 155.452 88.828C154.576 88.768 153.778 88.738 153.058 88.738C152.398 88.738 151.648 88.768 150.808 88.828Z" fill="#A53DFF"/>
</g>
<rect x="172" y="64" width="48" height="48" rx="4" fill="white"/>
<g clip-path="url(#clip1_1_263)">
<path d="M193 88C193 86.3432 194.343 84.9998 196 84.9998C197.657 84.9998 199 86.3432 199 88C199 89.6568 197.657 91.0002 196 91.0002C194.343 91.0002 193 89.6568 193 88ZM191.379 88C191.379 90.5524 193.448 92.6214 196 92.6214C198.552 92.6214 200.621 90.5524 200.621 88C200.621 85.4476 198.552 83.3786 196 83.3786C193.448 83.3786 191.379 85.4476 191.379 88ZM199.724 83.1954C199.724 83.7915 200.208 84.2757 200.805 84.2757C201.401 84.2757 201.885 83.7915 201.885 83.1954C201.885 82.5993 201.401 82.1158 200.805 82.1158C200.208 82.1158 199.724 82.5993 199.724 83.1954ZM192.364 95.3258C191.486 95.2858 191.009 95.1397 190.692 95.0161C190.272 94.8525 189.973 94.6577 189.657 94.3429C189.342 94.0281 189.147 93.7286 188.984 93.3084C188.86 92.9914 188.714 92.5145 188.674 91.6371C188.631 90.6884 188.622 90.4034 188.622 88C188.622 85.5966 188.631 85.3124 188.674 84.3629C188.714 83.4855 188.861 83.0093 188.984 82.6916C189.147 82.2714 189.342 81.9719 189.657 81.6564C189.972 81.3416 190.271 81.146 190.692 80.9832C191.009 80.8596 191.486 80.7135 192.364 80.6735C193.312 80.6299 193.597 80.6212 196 80.6212C198.403 80.6212 198.688 80.6306 199.637 80.6735C200.515 80.7135 200.991 80.8603 201.308 80.9832C201.729 81.146 202.028 81.3416 202.344 81.6564C202.658 81.9712 202.853 82.2714 203.017 82.6916C203.14 83.0086 203.287 83.4855 203.326 84.3629C203.37 85.3124 203.379 85.5966 203.379 88C203.379 90.4027 203.37 90.6876 203.326 91.6371C203.287 92.5145 203.14 92.9914 203.017 93.3084C202.853 93.7286 202.658 94.0281 202.344 94.3429C202.029 94.6577 201.729 94.8525 201.308 95.0161C200.991 95.1397 200.515 95.2858 199.637 95.3258C198.688 95.3694 198.403 95.3781 196 95.3781C193.597 95.3781 193.312 95.3694 192.364 95.3258ZM192.289 79.0545C191.331 79.0981 190.677 79.2501 190.105 79.4725C189.513 79.7023 189.012 80.0105 188.511 80.5107C188.011 81.0108 187.702 81.5124 187.473 82.1049C187.25 82.6771 187.098 83.3313 187.055 84.2895C187.01 85.2491 187 85.5559 187 88C187 90.4441 187.01 90.7509 187.055 91.7105C187.098 92.6687 187.25 93.3229 187.473 93.8951C187.702 94.4868 188.01 94.9892 188.511 95.4893C189.011 95.9895 189.512 96.297 190.105 96.5275C190.678 96.7499 191.331 96.9019 192.289 96.9455C193.25 96.9891 193.556 97 196 97C198.445 97 198.751 96.9898 199.711 96.9455C200.669 96.9019 201.323 96.7499 201.895 96.5275C202.487 96.297 202.988 95.9895 203.489 95.4893C203.99 94.9892 204.297 94.4868 204.527 93.8951C204.75 93.3229 204.903 92.6687 204.945 91.7105C204.989 90.7502 204.999 90.4441 204.999 88C204.999 85.5559 204.989 85.2491 204.945 84.2895C204.902 83.3313 204.75 82.6771 204.527 82.1049C204.297 81.5132 203.99 81.0116 203.489 80.5107C202.989 80.0105 202.487 79.7023 201.896 79.4725C201.323 79.2501 200.669 79.0974 199.711 79.0545C198.752 79.0109 198.445 79 196.001 79C193.556 79 193.25 79.0102 192.289 79.0545Z" fill="#A53DFF"/>
</g>
<g filter="url(#filter1_d_1_263)">
<rect x="220" y="64" width="48" height="48" rx="4" fill="#A53DFF" shape-rendering="crispEdges"/>
<g clip-path="url(#clip2_1_263)">
<path d="M235 81.0907C235 80.4846 235.203 79.9846 235.608 79.5907C236.014 79.1967 236.541 78.9998 237.189 78.9998C237.826 78.9998 238.342 79.1937 238.736 79.5816C239.141 79.9816 239.344 80.5028 239.344 81.1452C239.344 81.727 239.147 82.2119 238.753 82.5997C238.347 82.9997 237.815 83.1997 237.154 83.1997H237.137C236.5 83.1997 235.985 82.9997 235.591 82.5997C235.197 82.1998 235 81.6967 235 81.0907ZM235.226 96.9997V84.8543H239.083V96.9997H235.226ZM241.22 96.9997H245.077V90.2179C245.077 89.7937 245.124 89.4664 245.216 89.2361C245.378 88.824 245.625 88.4755 245.955 88.1906C246.285 87.9058 246.699 87.7634 247.197 87.7634C248.494 87.7634 249.143 88.6785 249.143 90.5088V96.9997H253V90.0361C253 88.2422 252.595 86.8816 251.784 85.9543C250.973 85.027 249.902 84.5634 248.569 84.5634C247.075 84.5634 245.911 85.2361 245.077 86.5816V86.6179H245.06L245.077 86.5816V84.8543H241.22C241.243 85.2422 241.255 86.4482 241.255 88.4725C241.255 90.4967 241.243 93.3391 241.22 96.9997Z" fill="white"/>
</g>
</g>
<rect x="268" y="64" width="48" height="48" rx="4" fill="white"/>
<path d="M290.263 87.0296C290.263 87.0296 291.966 86.9048 291.966 84.9335C291.966 82.9621 290.573 82 288.808 82H283V93.0165H288.808C288.808 93.0165 292.354 93.127 292.354 89.7649C292.354 89.765 292.508 87.0296 290.263 87.0296ZM288.39 83.9581H288.808C288.808 83.9581 289.598 83.9581 289.598 85.1043C289.598 86.2504 289.133 86.4165 288.607 86.4165H285.559V83.9581H288.39ZM288.644 91.0585H285.559V88.1145H288.808C288.808 88.1145 289.985 88.0993 289.985 89.6274C289.985 90.916 289.106 91.0488 288.644 91.0585ZM297.082 84.8029C292.79 84.8029 292.794 89.0358 292.794 89.0358C292.794 89.0358 292.499 93.2469 297.082 93.2469C297.082 93.2469 300.901 93.4623 300.901 90.3175H298.937C298.937 90.3175 299.003 91.5018 297.148 91.5018C297.148 91.5018 295.183 91.6317 295.183 89.5851H300.967C300.967 89.5851 301.599 84.8029 297.082 84.8029ZM295.162 88.1145C295.162 88.1145 295.401 86.4165 297.126 86.4165C298.85 86.4165 298.828 88.1145 298.828 88.1145H295.162ZM299.286 84.0056H294.681V82.649H299.286V84.0056Z" fill="#A53DFF"/>
</g>
<defs>
<filter id="filter0_d_1_263" x="0" y="0" width="392" height="200" filterUnits="userSpaceOnUse" color-interpolation-filters="sRGB">
<feFlood flood-opacity="0" result="BackgroundImageFix"/>
<feColorMatrix in="SourceAlpha" type="matrix" values="0 0 0 0 0 0 0 0 0 0 0 0 0 0 0 0 0 0 127 0" result="hardAlpha"/>
<feOffset dy="12"/>
<feGaussianBlur stdDeviation="32"/>
<feComposite in2="hardAlpha" operator="out"/>
<feColorMatrix type="matrix" values="0 0 0 0 0.108333 0 0 0 0 0.0993056 0 0 0 0 0.0993056 0 0 0 0.12 0"/>
<feBlend mode="normal" in2="BackgroundImageFix" result="effect1_dropShadow_1_263"/>
<feBlend mode="normal" in="SourceGraphic" in2="effect1_dropShadow_1_263" result="shape"/>
</filter>
<filter id="filter1_d_1_263" x="156" y="12" width="176" height="176" filterUnits="userSpaceOnUse" color-interpolation-filters="sRGB">
<feFlood flood-opacity="0" result="BackgroundImageFix"/>
<feColorMatrix in="SourceAlpha" type="matrix" values="0 0 0 0 0 0 0 0 0 0 0 0 0 0 0 0 0 0 127 0" result="hardAlpha"/>
<feOffset dy="12"/>
<feGaussianBlur stdDeviation="32"/>
<feComposite in2="hardAlpha" operator="out"/>
<feColorMatrix type="matrix" values="0 0 0 0 0.108333 0 0 0 0 0.0993056 0 0 0 0 0.0993056 0 0 0 0.12 0"/>
<feBlend mode="normal" in2="BackgroundImageFix" result="effect1_dropShadow_1_263"/>
<feBlend mode="normal" in="SourceGraphic" in2="effect1_dropShadow_1_263" result="shape"/>
</filter>
<clipPath id="clip0_1_263">
<rect width="18" height="18" fill="white" transform="translate(139 79)"/>
</clipPath>
<clipPath id="clip1_1_263">
<rect width="18" height="18" fill="white" transform="translate(187 79)"/>
</clipPath>
<clipPath id="clip2_1_263">
<rect width="18" height="18" fill="white" transform="translate(235 79)"/>
</clipPath>
</defs>
</svg>
