<svg width="352" height="176" viewBox="0 0 352 176" fill="none" xmlns="http://www.w3.org/2000/svg">
<g filter="url(#filter0_d_1_384)">
<rect x="64" y="52" width="48" height="48" rx="4" fill="#A53DFF" shape-rendering="crispEdges"/>
<path d="M92.4866 66.25H89.43C87.616 66.25 85.5985 67.0278 85.5985 69.7086C85.6073 70.6427 85.5985 71.5373 85.5985 72.5441H83.5V75.9487H85.6634V85.75H89.6387V75.884H92.2626L92.5 72.5346H89.5702C89.5702 72.5346 89.5768 71.0446 89.5702 70.6119C89.5702 69.5525 90.6514 69.6131 90.7164 69.6131C91.2309 69.6131 92.2313 69.6147 92.4881 69.6131V66.25H92.4866Z" fill="white"/>
</g>
<rect x="124" y="52" width="48" height="48" rx="4" fill="white"/>
<g clip-path="url(#clip0_1_384)">
<path d="M139 76C139 74.368 139.402 72.862 140.206 71.482C141.01 70.102 142.102 69.01 143.482 68.206C144.862 67.402 146.368 67 148 67C149.632 67 151.138 67.402 152.518 68.206C153.898 69.01 154.99 70.102 155.794 71.482C156.598 72.862 157 74.368 157 76C157 77.632 156.598 79.138 155.794 80.518C154.99 81.898 153.898 82.99 152.518 83.794C151.138 84.598 149.632 85 148 85C146.368 85 144.862 84.598 143.482 83.794C142.102 82.99 141.01 81.898 140.206 80.518C139.402 79.138 139 77.632 139 76ZM140.494 76C140.494 77.872 141.124 79.522 142.384 80.95C142.96 79.822 143.872 78.748 145.12 77.728C146.368 76.708 147.586 76.066 148.774 75.802C148.594 75.382 148.42 75.004 148.252 74.668C146.188 75.328 143.956 75.658 141.556 75.658C141.088 75.658 140.74 75.652 140.512 75.64C140.512 75.688 140.509 75.748 140.503 75.82C140.497 75.892 140.494 75.952 140.494 76ZM140.728 74.146C140.992 74.17 141.382 74.182 141.898 74.182C143.902 74.182 145.804 73.912 147.604 73.372C146.692 71.752 145.69 70.402 144.598 69.322C143.65 69.802 142.837 70.468 142.159 71.32C141.481 72.172 141.004 73.114 140.728 74.146ZM143.41 81.922C144.766 82.978 146.296 83.506 148 83.506C148.888 83.506 149.77 83.338 150.646 83.002C150.406 80.95 149.938 78.964 149.242 77.044C148.138 77.284 147.025 77.89 145.903 78.862C144.781 79.834 143.95 80.854 143.41 81.922ZM146.164 68.746C147.22 69.838 148.198 71.2 149.098 72.832C150.73 72.148 151.96 71.278 152.788 70.222C151.396 69.07 149.8 68.494 148 68.494C147.388 68.494 146.776 68.578 146.164 68.746ZM149.746 74.11C149.926 74.494 150.13 74.98 150.358 75.568C151.246 75.484 152.212 75.442 153.256 75.442C154 75.442 154.738 75.46 155.47 75.496C155.374 73.864 154.786 72.412 153.706 71.14C152.926 72.304 151.606 73.294 149.746 74.11ZM150.808 76.828C151.42 78.604 151.834 80.428 152.05 82.3C152.998 81.688 153.772 80.902 154.372 79.942C154.972 78.982 155.332 77.944 155.452 76.828C154.576 76.768 153.778 76.738 153.058 76.738C152.398 76.738 151.648 76.768 150.808 76.828Z" fill="#A53DFF"/>
</g>
<rect x="184" y="52" width="48" height="48" rx="4" fill="white"/>
<path d="M206.263 75.0296C206.263 75.0296 207.966 74.9048 207.966 72.9335C207.966 70.9621 206.573 70 204.808 70H199V81.0165H204.808C204.808 81.0165 208.354 81.127 208.354 77.7649C208.354 77.765 208.508 75.0296 206.263 75.0296ZM204.39 71.9581H204.808C204.808 71.9581 205.598 71.9581 205.598 73.1043C205.598 74.2504 205.133 74.4165 204.607 74.4165H201.559V71.9581H204.39ZM204.644 79.0585H201.559V76.1145H204.808C204.808 76.1145 205.985 76.0993 205.985 77.6274C205.985 78.916 205.106 79.0488 204.644 79.0585ZM213.082 72.8029C208.79 72.8029 208.794 77.0358 208.794 77.0358C208.794 77.0358 208.499 81.2469 213.082 81.2469C213.082 81.2469 216.901 81.4623 216.901 78.3175H214.937C214.937 78.3175 215.003 79.5018 213.148 79.5018C213.148 79.5018 211.183 79.6317 211.183 77.5851H216.967C216.967 77.5851 217.599 72.8029 213.082 72.8029ZM211.162 76.1145C211.162 76.1145 211.401 74.4165 213.126 74.4165C214.85 74.4165 214.828 76.1145 214.828 76.1145H211.162ZM215.286 72.0056H210.681V70.649H215.286V72.0056Z" fill="#A53DFF"/>
<rect x="244" y="52" width="48" height="48" rx="4" fill="white"/>
<g clip-path="url(#clip1_1_384)">
<path d="M265 76C265 74.3432 266.343 72.9998 268 72.9998C269.657 72.9998 271 74.3432 271 76C271 77.6568 269.657 79.0002 268 79.0002C266.343 79.0002 265 77.6568 265 76ZM263.379 76C263.379 78.5524 265.448 80.6214 268 80.6214C270.552 80.6214 272.621 78.5524 272.621 76C272.621 73.4476 270.552 71.3786 268 71.3786C265.448 71.3786 263.379 73.4476 263.379 76ZM271.724 71.1954C271.724 71.7915 272.208 72.2757 272.805 72.2757C273.401 72.2757 273.885 71.7915 273.885 71.1954C273.885 70.5993 273.401 70.1158 272.805 70.1158C272.208 70.1158 271.724 70.5993 271.724 71.1954ZM264.364 83.3258C263.486 83.2858 263.009 83.1397 262.692 83.0161C262.272 82.8525 261.973 82.6577 261.657 82.3429C261.342 82.0281 261.147 81.7286 260.984 81.3084C260.86 80.9914 260.714 80.5145 260.674 79.6371C260.631 78.6884 260.622 78.4034 260.622 76C260.622 73.5966 260.631 73.3124 260.674 72.3629C260.714 71.4855 260.861 71.0093 260.984 70.6916C261.147 70.2714 261.342 69.9719 261.657 69.6564C261.972 69.3416 262.271 69.146 262.692 68.9832C263.009 68.8596 263.486 68.7135 264.364 68.6735C265.312 68.6299 265.597 68.6212 268 68.6212C270.403 68.6212 270.688 68.6306 271.637 68.6735C272.515 68.7135 272.991 68.8603 273.308 68.9832C273.729 69.146 274.028 69.3416 274.344 69.6564C274.658 69.9712 274.853 70.2714 275.017 70.6916C275.14 71.0086 275.287 71.4855 275.326 72.3629C275.37 73.3124 275.379 73.5966 275.379 76C275.379 78.4027 275.37 78.6876 275.326 79.6371C275.287 80.5145 275.14 80.9914 275.017 81.3084C274.853 81.7286 274.658 82.0281 274.344 82.3429C274.029 82.6577 273.729 82.8525 273.308 83.0161C272.991 83.1397 272.515 83.2858 271.637 83.3258C270.688 83.3694 270.403 83.3781 268 83.3781C265.597 83.3781 265.312 83.3694 264.364 83.3258ZM264.289 67.0545C263.331 67.0981 262.677 67.2501 262.105 67.4725C261.513 67.7023 261.012 68.0105 260.511 68.5107C260.011 69.0108 259.702 69.5124 259.473 70.1049C259.25 70.6771 259.098 71.3313 259.055 72.2895C259.01 73.2491 259 73.5559 259 76C259 78.4441 259.01 78.7509 259.055 79.7105C259.098 80.6687 259.25 81.3229 259.473 81.8951C259.702 82.4868 260.01 82.9892 260.511 83.4893C261.011 83.9895 261.512 84.297 262.105 84.5275C262.678 84.7499 263.331 84.9019 264.289 84.9455C265.25 84.9891 265.556 85 268 85C270.445 85 270.751 84.9898 271.711 84.9455C272.669 84.9019 273.323 84.7499 273.895 84.5275C274.487 84.297 274.988 83.9895 275.489 83.4893C275.99 82.9892 276.297 82.4868 276.527 81.8951C276.75 81.3229 276.903 80.6687 276.945 79.7105C276.989 78.7502 276.999 78.4441 276.999 76C276.999 73.5559 276.989 73.2491 276.945 72.2895C276.902 71.3313 276.75 70.6771 276.527 70.1049C276.297 69.5132 275.99 69.0116 275.489 68.5107C274.989 68.0105 274.487 67.7023 273.896 67.4725C273.323 67.2501 272.669 67.0974 271.711 67.0545C270.752 67.0109 270.445 67 268.001 67C265.556 67 265.25 67.0102 264.289 67.0545Z" fill="#A53DFF"/>
</g>
<rect x="304" y="52" width="48" height="48" rx="4" fill="white"/>
<g clip-path="url(#clip2_1_384)">
<path d="M319 69.0909C319 68.4848 319.203 67.9848 319.608 67.5909C320.014 67.197 320.541 67 321.189 67C321.826 67 322.342 67.1939 322.736 67.5818C323.141 67.9818 323.344 68.503 323.344 69.1455C323.344 69.7273 323.147 70.2121 322.753 70.6C322.347 71 321.815 71.2 321.154 71.2H321.137C320.5 71.2 319.985 71 319.591 70.6C319.197 70.2 319 69.697 319 69.0909ZM319.226 85V72.8545H323.083V85H319.226ZM325.22 85H329.077V78.2182C329.077 77.7939 329.124 77.4666 329.216 77.2363C329.378 76.8242 329.625 76.4757 329.955 76.1909C330.285 75.906 330.699 75.7636 331.197 75.7636C332.494 75.7636 333.143 76.6788 333.143 78.5091V85H337V78.0363C337 76.2424 336.595 74.8818 335.784 73.9545C334.973 73.0273 333.902 72.5636 332.569 72.5636C331.075 72.5636 329.911 73.2364 329.077 74.5818V74.6182H329.06L329.077 74.5818V72.8545H325.22C325.243 73.2424 325.255 74.4485 325.255 76.4727C325.255 78.4969 325.243 81.3394 325.22 85Z" fill="#A53DFF"/>
</g>
<defs>
<filter id="filter0_d_1_384" x="0" y="0" width="176" height="176" filterUnits="userSpaceOnUse" color-interpolation-filters="sRGB">
<feFlood flood-opacity="0" result="BackgroundImageFix"/>
<feColorMatrix in="SourceAlpha" type="matrix" values="0 0 0 0 0 0 0 0 0 0 0 0 0 0 0 0 0 0 127 0" result="hardAlpha"/>
<feOffset dy="12"/>
<feGaussianBlur stdDeviation="32"/>
<feComposite in2="hardAlpha" operator="out"/>
<feColorMatrix type="matrix" values="0 0 0 0 0.108333 0 0 0 0 0.0993056 0 0 0 0 0.0993056 0 0 0 0.12 0"/>
<feBlend mode="normal" in2="BackgroundImageFix" result="effect1_dropShadow_1_384"/>
<feBlend mode="normal" in="SourceGraphic" in2="effect1_dropShadow_1_384" result="shape"/>
</filter>
<clipPath id="clip0_1_384">
<rect width="18" height="18" fill="white" transform="translate(139 67)"/>
</clipPath>
<clipPath id="clip1_1_384">
<rect width="18" height="18" fill="white" transform="translate(259 67)"/>
</clipPath>
<clipPath id="clip2_1_384">
<rect width="18" height="18" fill="white" transform="translate(319 67)"/>
</clipPath>
</defs>
</svg>
